<svg xmlns="http://www.w3.org/2000/svg" width="1000" height="1000" viewBox="0 0 1000 1000"><style>
    #light-icon { display: inline }
    #dark-icon { display: none }
    @media (prefers-color-scheme: dark) {
      #light-icon { display: none }
      #dark-icon { display: inline }
    }
  </style><g id="light-icon" transform="translate(1.375, 0)"><path d="M344.93,999.91c-18.79.46-37.6-.85-56.09-4.21-9.59-1.74-19.12-4.02-25.77-6.87-19.38-8.33-36.97-23.23-46.92-41.97-12.28-23.12-6.85-43.42-.56-67.29,1.09-4.14,2.11-8.79.59-13.03-1.44-4.01-4.86-7.16-8.54-9.14-9.6-5.16-21.14-8.01-31.19-12.7-77.67-36.21-143.18-91.77-167.26-177.15-33.34-118.21,26.66-247.11,135.77-300.85,4.84-2.38,7.66-7.49,7.25-12.87-7.49-98.57,13.37-185.63,62.19-259.18,21.33-32.14,44.01-55.51,69.31-71.43C307.88,8.03,334.25,0,359.98,0c20.16,0,41.05,5.03,58.28,15.73,7.17,4.45,13.39,11.18,19.27,17.14,4.51,4.57,7.9,10.14,12.61,14.52,5.94,5.52,12.57,6.18,20.25,7.62,6.13,1.15,12.46,2.34,18.75,4.27,48.65,14.94,91.43,54.77,114.42,106.54,18.77,42.24,25.58,92.08,20.25,148.14-2.51,26.41-7.5,53.85-16.16,88.97-.95,3.83-1.73,8.62-2.53,13.79-.69,4.47,2.79,8.52,7.31,8.46,37-.49,74.74,2.93,109.84,15.19,29.32,10.25,56.49,25.53,80.39,45.4,23.55,19.59,43.86,43.37,58.52,70.32,13.1,24.09,21.55,50.78,23.32,78.22.47,7.29.2,14.68.58,21.95.32,6.15,2.21,11.97,8.46,14.57,6.18,2.57,12.94,1.13,19.39,1.13,41.13,0,60.39,21.94,72.7,41,31.59,68.36-8.72,151.46-31.92,176.36-28.31,30.4-68.42,51.34-110.39,51.34-26.52,0-48.81-13.45-74.76-13.58-29.53-.14-54.02,22.09-80.21,32.89-18.95,7.82-39.41,14.32-61.76,19.62-26.88,6.37-54.31,10.19-81.88,11.86-66.47,4.02-133.06,6.84-199.78,8.46Z"/><g><path fill="#fff" d="M930.71,738.38c-39.18-33.15-105.18,35.52-113.51,90.61-4.91,32.49,27.41,58.67,58.27,47.39,38.53-14.08,65.36-59.25,69.66-100.68,1.46-14.03-3.65-28.21-14.42-37.32Z"/><path fill="#fff" d="M288.62,550.63c-2.36-9.97-9.45-18.7-19.03-22.29-29.14-10.67-50.49,27.68-44.49,52.8,1.89,7.79,7.98,17.62,16.91,16.77,8.69-1.09,15.73-11.71,23.62-15.82,6.61-3.97,13.65-5.1,18.89-10.01l.09-.09c5.67-5.48,5.81-13.74,4.02-21.35Z"/><path fill="#fff" d="M424.18,940.3c56.61-1.21,113-7.83,168.17-20.58,60.29-13.94,126.7-36.95,159.48-73.95,57.36-64.73,102.7-169.85,60.36-253-24.53-48.17-71.64-86.82-121.91-102.39-41.54-12.87-87.03-11.19-128.04,2.9-20.92,7.19-40.78,17.61-58.38,31.04-14.51,11.08-42.71,25.55-45.21,45.52-1.42,11.35,7.05,23.5,17.97,26.62,14.39,4.11,25.44-8.05,36.65-14.7,27.75-16.46,59.78-25.72,92.05-26.37,49.31-.99,107.61,16.39,131.73,62.42,22.05,42.08,15.44,96.01-9.59,135.29-37.03,58.1-104.47,83.22-166.72,104.2-72.63,24.49-220.3,33.87-235.83,35.1-15.54,1.24-46.89,3.94-46.89,26.76s45.16,22.35,45.16,22.35c0,0,60.02-.34,100.99-1.22Z"/><path fill="#fff" d="M566.62,290.34c.41-33.66-4.26-66.9-15.77-98.07-14.5-39.28-47.37-74.64-88.96-79.54-9.8-1.16-19.83-.62-29.44-2.88-17.25-4.05-21.99-21.23-32.73-33.17-13.74-15.28-33.17-22.23-53.66-17.76-22.37,4.88-40.82,20.52-56.37,37.33-36.54,39.49-61.85,88.88-74.15,141.16-6.15,26.16-9.08,53.09-8.54,79.96.3,15.04,1.3,30.4,4.49,45.12,2.25,10.4,8.78,22.56,2.78,32.93-6.11,10.56-23.18,13.37-33.35,18.27-14.39,6.93-28.04,15.4-40.62,25.24-52.95,41.42-85.56,108.91-81.2,175.99,4.36,67.08,47.21,131.21,109.09,157.47,22.71,9.64,47.63,13.72,72.24,12.56,34.44-1.62,74.32-14.58,100.63-37.26,7.07-6.1,13.4-13.17,17.77-21.47,2.26-4.31,4.76-9.55,4.16-14.53-.38-3.18-2.06-6.27-4.78-7.96-2.64-1.64-5.97-1.84-9.02-1.2-4.2.88-8.25,3.07-12.2,4.7-9.72,4.02-19.23,8.52-29.03,12.36-10.9,4.27-22.31,7.81-34.09,8.33-76.46,3.37-143.66-55.63-142.73-134.06.55-46.24,26.1-91.25,68.41-111.44,43.49-20.76,99.4-10.99,125.37,32.31,6.64,11.06,11.05,23.75,22.85,30.92,5.82,3.53,13.1,4.3,19.14,1.16,13.67-7.12,10.18-26.77,5.78-41.29-27.36-90.31-25.84-221.06,42.58-294.54,10.71-11.5,25.4-20.22,41.12-20.27,22.36-.07,41.78,17.67,50.16,38.41,8.38,20.73,7.83,43.9,5.96,66.19-4.66,55.75-16.78,110.88-35.92,163.45-4.37,11.99-9.19,24.45-4.86,37.37,2.26,6.74,7.67,12.22,14.63,13.65,14,2.88,24.21-11.51,30.22-24.09,27.74-58.02,49.19-127.56,50.02-195.35ZM277.99,385.02c-27.27-46.18-25.62-105.37-8.54-154.6,5.31-15.32,12.27-30.02,20.04-44.23,7.14-13.05,14.48-26.96,23.64-38.71,9.07-11.62,24.6-24.78,40.27-23.74,3.79.27,7.34,2.19,9.44,5.36,4.33,6.53,1.32,12.38-2.3,17.54-3.49,4.97-7.11,9.86-10.54,14.87-6.85,10.01-13.37,20.26-19.42,30.77-12.06,20.95-22.27,43.02-29.51,66.1-2.85,9.08-5.24,18.3-7.12,27.63-4.59,22.79-7.33,46.18-8.88,69.36-.63,9.23-.61,18.48-.54,27.73.13,3.65-4.69,5.06-6.54,1.91Z"/></g></g><g id="dark-icon" transform="translate(1.375, 0)"><path fill="#fff" d="M344.93,999.91c-18.79.46-37.6-.85-56.09-4.21-9.59-1.74-19.12-4.02-25.77-6.87-19.38-8.33-36.97-23.23-46.92-41.97-12.28-23.12-6.85-43.42-.56-67.29,1.09-4.14,2.11-8.79.59-13.03-1.44-4.01-4.86-7.16-8.54-9.14-9.6-5.16-21.14-8.01-31.19-12.7-77.67-36.21-143.18-91.77-167.26-177.15-33.34-118.21,26.66-247.11,135.77-300.85,4.84-2.38,7.66-7.49,7.25-12.87-7.49-98.57,13.37-185.63,62.19-259.18,21.33-32.14,44.01-55.51,69.31-71.43C307.88,8.03,334.25,0,359.98,0c20.16,0,41.05,5.03,58.28,15.73,7.17,4.45,13.39,11.18,19.27,17.14,4.51,4.57,7.9,10.14,12.61,14.52,5.94,5.52,12.57,6.18,20.25,7.62,6.13,1.15,12.46,2.34,18.75,4.27,48.65,14.94,91.43,54.77,114.42,106.54,18.77,42.24,25.58,92.08,20.25,148.14-2.51,26.41-7.5,53.85-16.16,88.97-.95,3.83-1.73,8.62-2.53,13.79-.69,4.47,2.79,8.52,7.31,8.46,37-.49,74.74,2.93,109.84,15.19,29.32,10.25,56.49,25.53,80.39,45.4,23.55,19.59,43.86,43.37,58.52,70.32,13.1,24.09,21.55,50.78,23.32,78.22.47,7.29.2,14.68.58,21.95.32,6.15,2.21,11.97,8.46,14.57,6.18,2.57,12.94,1.13,19.39,1.13,41.13,0,60.39,21.94,72.7,41,31.59,68.36-8.72,151.46-31.92,176.36-28.31,30.4-68.42,51.34-110.39,51.34-26.52,0-48.81-13.45-74.76-13.58-29.53-.14-54.02,22.09-80.21,32.89-18.95,7.82-39.41,14.32-61.76,19.62-26.88,6.37-54.31,10.19-81.88,11.86-66.47,4.02-133.06,6.84-199.78,8.46Z"/><g><path fill="#000" d="M930.71,738.38c-39.18-33.15-105.18,35.52-113.51,90.61-4.91,32.49,27.41,58.67,58.27,47.39,38.53-14.08,65.36-59.25,69.66-100.68,1.46-14.03-3.65-28.21-14.42-37.32Z"/><path fill="#000" d="M288.62,550.63c-2.36-9.97-9.45-18.7-19.03-22.29-29.14-10.67-50.49,27.68-44.49,52.8,1.89,7.79,7.98,17.62,16.91,16.77,8.69-1.09,15.73-11.71,23.62-15.82,6.61-3.97,13.65-5.1,18.89-10.01l.09-.09c5.67-5.48,5.81-13.74,4.02-21.35Z"/><path fill="#000" d="M424.18,940.3c56.61-1.21,113-7.83,168.17-20.58,60.29-13.94,126.7-36.95,159.48-73.95,57.36-64.73,102.7-169.85,60.36-253-24.53-48.17-71.64-86.82-121.91-102.39-41.54-12.87-87.03-11.19-128.04,2.9-20.92,7.19-40.78,17.61-58.38,31.04-14.51,11.08-42.71,25.55-45.21,45.52-1.42,11.35,7.05,23.5,17.97,26.62,14.39,4.11,25.44-8.05,36.65-14.7,27.75-16.46,59.78-25.72,92.05-26.37,49.31-.99,107.61,16.39,131.73,62.42,22.05,42.08,15.44,96.01-9.59,135.29-37.03,58.1-104.47,83.22-166.72,104.2-72.63,24.49-220.3,33.87-235.83,35.1-15.54,1.24-46.89,3.94-46.89,26.76s45.16,22.35,45.16,22.35c0,0,60.02-.34,100.99-1.22Z"/><path fill="#000" d="M566.62,290.34c.41-33.66-4.26-66.9-15.77-98.07-14.5-39.28-47.37-74.64-88.96-79.54-9.8-1.16-19.83-.62-29.44-2.88-17.25-4.05-21.99-21.23-32.73-33.17-13.74-15.28-33.17-22.23-53.66-17.76-22.37,4.88-40.82,20.52-56.37,37.33-36.54,39.49-61.85,88.88-74.15,141.16-6.15,26.16-9.08,53.09-8.54,79.96.3,15.04,1.3,30.4,4.49,45.12,2.25,10.4,8.78,22.56,2.78,32.93-6.11,10.56-23.18,13.37-33.35,18.27-14.39,6.93-28.04,15.4-40.62,25.24-52.95,41.42-85.56,108.91-81.2,175.99,4.36,67.08,47.21,131.21,109.09,157.47,22.71,9.64,47.63,13.72,72.24,12.56,34.44-1.62,74.32-14.58,100.63-37.26,7.07-6.1,13.4-13.17,17.77-21.47,2.26-4.31,4.76-9.55,4.16-14.53-.38-3.18-2.06-6.27-4.78-7.96-2.64-1.64-5.97-1.84-9.02-1.2-4.2.88-8.25,3.07-12.2,4.7-9.72,4.02-19.23,8.52-29.03,12.36-10.9,4.27-22.31,7.81-34.09,8.33-76.46,3.37-143.66-55.63-142.73-134.06.55-46.24,26.1-91.25,68.41-111.44,43.49-20.76,99.4-10.99,125.37,32.31,6.64,11.06,11.05,23.75,22.85,30.92,5.82,3.53,13.1,4.3,19.14,1.16,13.67-7.12,10.18-26.77,5.78-41.29-27.36-90.31-25.84-221.06,42.58-294.54,10.71-11.5,25.4-20.22,41.12-20.27,22.36-.07,41.78,17.67,50.16,38.41,8.38,20.73,7.83,43.9,5.96,66.19-4.66,55.75-16.78,110.88-35.92,163.45-4.37,11.99-9.19,24.45-4.86,37.37,2.26,6.74,7.67,12.22,14.63,13.65,14,2.88,24.21-11.51,30.22-24.09,27.74-58.02,49.19-127.56,50.02-195.35ZM277.99,385.02c-27.27-46.18-25.62-105.37-8.54-154.6,5.31-15.32,12.27-30.02,20.04-44.23,7.14-13.05,14.48-26.96,23.64-38.71,9.07-11.62,24.6-24.78,40.27-23.74,3.79.27,7.34,2.19,9.44,5.36,4.33,6.53,1.32,12.38-2.3,17.54-3.49,4.97-7.11,9.86-10.54,14.87-6.85,10.01-13.37,20.26-19.42,30.77-12.06,20.95-22.27,43.02-29.51,66.1-2.85,9.08-5.24,18.3-7.12,27.63-4.59,22.79-7.33,46.18-8.88,69.36-.63,9.23-.61,18.48-.54,27.73.13,3.65-4.69,5.06-6.54,1.91Z"/></g></g></svg>
