<?xml version="1.0" encoding="UTF-8"?>
<svg id="AW" xmlns="http://www.w3.org/2000/svg" viewBox="0 0 997.25 1000">
  <defs>
    <style>
      .cls-1 {
        fill: #fff;
      }
    </style>
  </defs>
  <path class="cls-1" d="M277.99,385.02c-27.27-46.18-25.63-105.37-8.54-154.6,5.31-15.32,12.27-30.02,20.04-44.23,7.14-13.05,14.48-26.97,23.64-38.71,9.07-11.62,24.6-24.78,40.28-23.74,3.79.27,7.34,2.19,9.44,5.36,4.32,6.54,1.32,12.38-2.3,17.54-3.49,4.98-7.11,9.86-10.55,14.88-6.85,10.01-13.37,20.25-19.42,30.77-12.05,20.95-22.27,43.01-29.51,66.1-2.85,9.07-5.24,18.3-7.12,27.62-4.59,22.79-7.33,46.18-8.88,69.37-.63,9.22-.6,18.48-.54,27.72.13,3.65-4.69,5.06-6.54,1.92Z"/>
  <path class="cls-1" d="M985.63,712.96c-12.31-19.06-31.57-41-72.7-41-6.45,0-13.22,1.45-19.39-1.12-6.25-2.6-8.15-8.41-8.46-14.57-.37-7.27-.11-14.66-.58-21.95-1.77-27.44-10.21-54.13-23.31-78.22-14.67-26.96-34.97-50.73-58.52-70.32-23.9-19.88-51.06-35.16-80.39-45.41-35.1-12.27-72.84-15.68-109.84-15.19-4.52.06-8-3.99-7.31-8.46.79-5.18,1.58-9.96,2.53-13.8,8.66-35.12,13.65-62.56,16.16-88.97,5.33-56.05-1.49-105.89-20.25-148.14-23-51.76-65.77-91.59-114.43-106.53-6.29-1.94-12.62-3.12-18.75-4.27-7.68-1.44-14.31-2.1-20.25-7.62-4.71-4.38-8.1-9.95-12.61-14.52-5.88-5.96-12.1-12.69-19.27-17.14C401.03,5.03,380.14,0,359.98,0c-25.73,0-52.1,8.03-76.25,23.22-25.3,15.92-47.98,39.28-69.31,71.43-48.82,73.55-69.69,160.6-62.19,259.17.41,5.38-2.42,10.49-7.26,12.87C35.86,420.43-24.14,549.33,9.2,667.54c24.08,85.38,89.58,140.95,167.26,177.15,10.05,4.69,21.59,7.54,31.19,12.7,3.67,1.98,7.09,5.13,8.53,9.14,1.52,4.24.5,8.89-.59,13.03-6.28,23.87-11.71,44.17.57,67.29,9.95,18.75,27.54,33.64,46.92,41.97,6.64,2.86,16.18,5.13,25.76,6.88,18.49,3.36,37.31,4.67,56.09,4.21,66.72-1.62,133.31-4.44,199.78-8.46,27.58-1.67,55-5.49,81.88-11.86,22.35-5.3,42.81-11.81,61.76-19.62,26.19-10.8,50.68-33.03,80.21-32.89,25.95.13,48.24,13.58,74.76,13.58,41.96,0,82.08-20.94,110.39-51.34,23.2-24.9,63.51-108,31.92-176.36ZM240.43,784.96c-24.61,1.16-49.52-2.92-72.23-12.56-61.88-26.27-104.74-90.39-109.1-157.47-4.36-67.08,28.25-134.58,81.2-176,12.58-9.84,26.23-18.3,40.62-25.23,10.17-4.9,27.25-7.71,33.35-18.27,6-10.37-.53-22.53-2.78-32.93-3.19-14.73-4.18-30.09-4.48-45.13-.55-26.87,2.38-53.8,8.53-79.95,12.3-52.29,37.61-101.67,74.15-141.17,15.55-16.81,34-32.44,56.37-37.32,20.5-4.48,39.92,2.47,53.67,17.75,10.73,11.94,15.47,29.12,32.72,33.17,9.61,2.25,19.64,1.72,29.45,2.87,41.58,4.9,74.45,40.27,88.95,79.55,11.51,31.17,16.19,64.41,15.77,98.07-.83,67.79-22.28,137.33-50.02,195.35-6.02,12.58-16.22,26.97-30.22,24.09-6.97-1.43-12.38-6.91-14.64-13.65-4.32-12.92.5-25.39,4.87-37.37,19.14-52.58,31.25-107.7,35.92-163.46,1.86-22.28,2.41-45.45-5.96-66.18-8.38-20.74-27.8-38.48-50.16-38.41-15.72.05-30.41,8.77-41.12,20.27-68.42,73.48-69.95,204.23-42.58,294.54,4.4,14.52,7.89,34.17-5.78,41.29-6.04,3.14-13.32,2.37-19.14-1.16-11.8-7.16-16.21-19.85-22.85-30.92-25.97-43.29-81.87-53.06-125.37-32.3-42.3,20.19-67.86,65.19-68.41,111.44-.93,78.43,66.27,137.43,142.73,134.06,11.78-.52,23.18-4.06,34.09-8.33,9.79-3.84,19.31-8.34,29.02-12.36,3.95-1.63,8-3.82,12.2-4.7,3.04-.64,6.38-.44,9.02,1.2,2.71,1.7,4.39,4.79,4.77,7.96.6,4.98-1.89,10.22-4.16,14.53-4.37,8.3-10.7,15.37-17.77,21.47-26.31,22.69-66.19,35.64-100.63,37.26ZM284.61,571.98l-.1.09c-5.24,4.91-12.28,6.04-18.89,10.01-7.89,4.11-14.92,14.74-23.61,15.82-8.93.85-15.02-8.97-16.91-16.76-6-25.13,15.35-63.48,44.49-52.81,9.59,3.59,16.67,12.33,19.03,22.3,1.8,7.6,1.66,15.87-4.01,21.35ZM751.84,845.77c-32.79,37-99.2,60.01-159.48,73.95-55.17,12.75-111.57,19.36-168.17,20.58-40.98.88-100.99,1.22-100.99,1.22,0,0-45.17.15-45.17-22.35s31.36-25.52,46.89-26.76c15.54-1.24,163.21-10.62,235.84-35.11,62.24-20.98,129.68-46.1,166.71-104.2,25.03-39.27,31.65-93.21,9.6-135.29-24.13-46.03-82.43-63.4-131.74-62.42-32.27.65-64.3,9.92-92.05,26.37-11.22,6.65-22.27,18.81-36.65,14.7-10.92-3.12-19.4-15.27-17.98-26.62,2.51-19.97,30.7-34.44,45.22-45.52,17.59-13.43,37.45-23.86,58.37-31.04,41.01-14.09,86.5-15.77,128.04-2.9,50.28,15.57,97.39,54.22,121.92,102.39,42.34,83.15-3.01,188.27-60.36,253ZM945.13,775.7c-4.3,41.42-31.12,86.59-69.66,100.68-30.86,11.28-63.18-14.91-58.27-47.4,8.33-55.09,74.33-123.75,113.51-90.6,10.77,9.1,15.88,23.29,14.42,37.32Z"/>
</svg>